<?xml version="1.0" encoding="UTF-8"?> <svg xmlns="http://www.w3.org/2000/svg" width="177" height="32" viewBox="0 0 177 32" fill="none"><path d="M25.2305 32H6.75748C4.96601 31.9931 3.25001 31.2778 1.984 30.0103C0.717987 28.7428 0.00476541 27.026 0 25.2345V6.76351C0.00530386 4.97135 0.719589 3.2541 1.98684 1.98684C3.2541 0.719588 4.97135 0.00530386 6.76351 0H25.2365C27.0287 0.00530386 28.7459 0.719588 30.0132 1.98684C31.2804 3.2541 31.9947 4.97135 32 6.76351V25.2345C31.9952 27.028 31.2803 28.7467 30.0117 30.0146C28.7431 31.2824 27.024 31.9963 25.2305 32Z" fill="#FF2B85"></path><path d="M11.5547 12.2805C11.4301 12.2805 11.3084 12.3174 11.2048 12.3867C11.1013 12.4559 11.0206 12.5543 10.9731 12.6694C10.9255 12.7845 10.9132 12.9112 10.9376 13.0333C10.962 13.1554 11.0222 13.2675 11.1104 13.3555C11.1986 13.4434 11.3109 13.5032 11.4331 13.5272C11.5553 13.5513 11.6819 13.5385 11.7969 13.4906C11.9118 13.4427 12.01 13.3617 12.0789 13.2579C12.1478 13.1542 12.1844 13.0323 12.184 12.9078C12.184 12.8252 12.1677 12.7435 12.136 12.6672C12.1044 12.591 12.058 12.5218 11.9995 12.4635C11.9411 12.4052 11.8717 12.3591 11.7953 12.3276C11.719 12.2962 11.6372 12.2802 11.5547 12.2805ZM11.5547 12.2805C11.4301 12.2805 11.3084 12.3174 11.2048 12.3867C11.1013 12.4559 11.0206 12.5543 10.9731 12.6694C10.9255 12.7845 10.9132 12.9112 10.9376 13.0333C10.962 13.1554 11.0222 13.2675 11.1104 13.3555C11.1986 13.4434 11.3109 13.5032 11.4331 13.5272C11.5553 13.5513 11.6819 13.5385 11.7969 13.4906C11.9118 13.4427 12.01 13.3617 12.0789 13.2579C12.1478 13.1542 12.1844 13.0323 12.184 12.9078C12.184 12.8252 12.1677 12.7435 12.136 12.6672C12.1044 12.591 12.058 12.5218 11.9995 12.4635C11.9411 12.4052 11.8717 12.3591 11.7953 12.3276C11.719 12.2962 11.6372 12.2802 11.5547 12.2805ZM11.5547 12.2805C11.4301 12.2805 11.3084 12.3174 11.2048 12.3867C11.1013 12.4559 11.0206 12.5543 10.9731 12.6694C10.9255 12.7845 10.9132 12.9112 10.9376 13.0333C10.962 13.1554 11.0222 13.2675 11.1104 13.3555C11.1986 13.4434 11.3109 13.5032 11.4331 13.5272C11.5553 13.5513 11.6819 13.5385 11.7969 13.4906C11.9118 13.4427 12.01 13.3617 12.0789 13.2579C12.1478 13.1542 12.1844 13.0323 12.184 12.9078C12.184 12.8252 12.1677 12.7435 12.136 12.6672C12.1044 12.591 12.058 12.5218 11.9995 12.4635C11.9411 12.4052 11.8717 12.3591 11.7953 12.3276C11.719 12.2962 11.6372 12.2802 11.5547 12.2805ZM20.572 12.2805C20.4474 12.2801 20.3254 12.3167 20.2216 12.3857C20.1178 12.4547 20.0369 12.5529 19.989 12.668C19.9411 12.7831 19.9285 12.9098 19.9527 13.0321C19.9769 13.1543 20.0369 13.2666 20.125 13.3548C20.2131 13.4429 20.3255 13.5029 20.4477 13.5271C20.57 13.5513 20.6967 13.5387 20.8117 13.4908C20.9268 13.4429 21.0251 13.3619 21.0941 13.2581C21.1631 13.1543 21.1997 13.0324 21.1993 12.9078C21.1993 12.7414 21.1332 12.5818 21.0156 12.4642C20.8979 12.3466 20.7384 12.2805 20.572 12.2805ZM20.572 12.2805C20.4474 12.2801 20.3254 12.3167 20.2216 12.3857C20.1178 12.4547 20.0369 12.5529 19.989 12.668C19.9411 12.7831 19.9285 12.9098 19.9527 13.0321C19.9769 13.1543 20.0369 13.2666 20.125 13.3548C20.2131 13.4429 20.3255 13.5029 20.4477 13.5271C20.57 13.5513 20.6967 13.5387 20.8117 13.4908C20.9268 13.4429 21.0251 13.3619 21.0941 13.2581C21.1631 13.1543 21.1997 13.0324 21.1993 12.9078C21.1993 12.7414 21.1332 12.5818 21.0156 12.4642C20.8979 12.3466 20.7384 12.2805 20.572 12.2805ZM11.5547 12.2805C11.4301 12.2805 11.3084 12.3174 11.2048 12.3867C11.1013 12.4559 11.0206 12.5543 10.9731 12.6694C10.9255 12.7845 10.9132 12.9112 10.9376 13.0333C10.962 13.1554 11.0222 13.2675 11.1104 13.3555C11.1986 13.4434 11.3109 13.5032 11.4331 13.5272C11.5553 13.5513 11.6819 13.5385 11.7969 13.4906C11.9118 13.4427 12.01 13.3617 12.0789 13.2579C12.1478 13.1542 12.1844 13.0323 12.184 12.9078C12.184 12.8252 12.1677 12.7435 12.136 12.6672C12.1044 12.591 12.058 12.5218 11.9995 12.4635C11.9411 12.4052 11.8717 12.3591 11.7953 12.3276C11.719 12.2962 11.6372 12.2802 11.5547 12.2805ZM28.0231 15.4451C28.0231 15.2802 28.005 15.1194 27.9889 14.9605C27.9889 14.9223 27.9889 14.8882 27.9789 14.85C27.9568 14.663 27.9347 14.48 27.9065 14.293C27.869 14.0558 27.8247 13.8185 27.7738 13.5813C27.7416 13.4265 27.7034 13.2717 27.6632 13.1189C27.615 12.9178 27.5587 12.7369 27.5044 12.5499C27.4441 12.3629 27.3777 12.1759 27.3033 11.993C27.229 11.81 27.1646 11.6291 27.0882 11.4481C26.9394 11.0873 26.7696 10.7355 26.5795 10.3946C26.396 10.0532 26.1947 9.72163 25.9764 9.40136C25.9995 9.38389 26.0205 9.36362 26.0387 9.34104C26.0917 9.29716 26.1414 9.24945 26.1875 9.19829C26.2096 9.17618 26.2317 9.15406 26.2498 9.13195C26.2981 9.07565 26.3483 9.02136 26.3926 8.96105C26.4126 8.93841 26.4307 8.9142 26.4468 8.88866C26.5019 8.81878 26.5517 8.74486 26.5956 8.66751L26.6238 8.62931C26.6299 8.62106 26.6352 8.61232 26.6399 8.60317C26.6399 8.60317 26.6399 8.58507 26.6519 8.58105C26.6901 8.50264 26.7344 8.42624 26.7665 8.34782C26.8183 8.24716 26.8614 8.14223 26.8952 8.03418C26.9106 7.99281 26.9234 7.95051 26.9334 7.90752C26.9435 7.86932 26.9555 7.8291 26.9656 7.78688C26.9798 7.73935 26.9912 7.69101 26.9997 7.64212C27.0178 7.56264 27.0306 7.48204 27.0379 7.40085C27.0409 7.38761 27.0409 7.37389 27.0379 7.36064C27.0379 7.32847 27.0379 7.30033 27.0379 7.26816C27.0379 7.18573 27.05 7.09726 27.05 7.0088C27.0497 6.5912 26.9672 6.17774 26.8071 5.79205C26.647 5.40637 26.4124 5.05601 26.1169 4.761C25.8213 4.46599 25.4705 4.23212 25.0845 4.07273C24.6985 3.91335 24.2849 3.83159 23.8673 3.83212C23.7679 3.83241 23.6686 3.83778 23.5697 3.8482C23.5295 3.8482 23.4873 3.8482 23.4471 3.86429C23.3673 3.87179 23.288 3.88455 23.2099 3.90249C23.1148 3.9214 23.0208 3.94556 22.9284 3.97487L22.8681 3.99095C22.7856 4.0191 22.7153 4.04725 22.6368 4.07942C22.6368 4.07942 22.6368 4.07942 22.6208 4.07942C22.5288 4.11631 22.4401 4.16069 22.3554 4.21211C22.2786 4.25097 22.2046 4.29532 22.1342 4.34481C22.1141 4.35445 22.0958 4.36736 22.0799 4.38301C22.009 4.42712 21.9418 4.47688 21.8789 4.53179C21.8503 4.54503 21.8259 4.5659 21.8085 4.59211C21.7494 4.63548 21.6936 4.6832 21.6416 4.73486C21.6174 4.75693 21.5952 4.78116 21.5753 4.80724C21.5206 4.8613 21.4689 4.91836 21.4205 4.97814C21.3544 5.0553 21.2933 5.13655 21.2375 5.22141C21.2236 5.2365 21.2108 5.25263 21.1993 5.26967C21.0183 5.1812 20.8354 5.09877 20.6544 5.02639C20.4735 4.95401 20.2905 4.87761 20.1015 4.81327C19.9869 4.76904 19.8643 4.72481 19.7437 4.69063C19.6416 4.64858 19.5368 4.61365 19.43 4.58608C19.3255 4.55391 19.229 4.52576 19.1103 4.49761C19.0319 4.47549 18.9615 4.45338 18.8831 4.4373C18.8047 4.42121 18.6821 4.38703 18.5695 4.36492C18.4207 4.32672 18.2719 4.29857 18.1171 4.27243C18.0642 4.25962 18.0104 4.25022 17.9563 4.24428C17.8196 4.22217 17.6748 4.20005 17.532 4.18396C17.4496 4.16788 17.3672 4.16185 17.2847 4.14979C17.0958 4.12767 16.9088 4.11159 16.7158 4.10555C16.6957 4.10374 16.6755 4.10374 16.6554 4.10555C16.4242 4.08746 16.197 4.08344 15.9658 4.08344C15.7346 4.08344 15.5074 4.08344 15.2762 4.10555C15.2561 4.10374 15.2359 4.10374 15.2159 4.10555C15.0148 4.10555 14.8359 4.12767 14.6469 4.14979C14.5645 4.16185 14.482 4.16788 14.3996 4.18396C14.2568 4.20005 14.1121 4.22217 13.9754 4.24428C13.9212 4.25022 13.8675 4.25962 13.8145 4.27243C13.6657 4.29857 13.5109 4.32672 13.3682 4.36492C13.2605 4.3836 13.1538 4.40775 13.0485 4.4373C12.9721 4.45338 12.8997 4.47549 12.8213 4.49761C12.7429 4.51973 12.6082 4.55391 12.5016 4.58608C12.3948 4.61365 12.29 4.64858 12.188 4.69063C12.0674 4.72481 11.9447 4.76904 11.8301 4.81327C11.6411 4.87761 11.4602 4.94999 11.2772 5.02639C11.0942 5.10279 10.9133 5.1812 10.7323 5.26967C10.7209 5.25263 10.7081 5.2365 10.6941 5.22141C10.6383 5.13655 10.5772 5.0553 10.5112 4.97814C10.4628 4.91836 10.4111 4.8613 10.3564 4.80724C10.3365 4.78116 10.3143 4.75693 10.29 4.73486C10.238 4.6832 10.1822 4.63548 10.1231 4.59211C10.1057 4.5659 10.0813 4.54503 10.0528 4.53179C9.98986 4.47688 9.92263 4.42712 9.85172 4.38301C9.8362 4.36697 9.81778 4.354 9.79744 4.34481C9.727 4.29532 9.65309 4.25097 9.57628 4.21211C9.49159 4.16069 9.40283 4.11631 9.31088 4.07942C9.31088 4.07942 9.31088 4.07942 9.2948 4.07942C9.2184 4.04725 9.14602 4.0191 9.06358 3.99095L9.00327 3.97487C8.91085 3.94556 8.81688 3.9214 8.72179 3.90249C8.64363 3.88455 8.56438 3.87179 8.48454 3.86429C8.44396 3.85683 8.40303 3.85146 8.3619 3.8482C8.26305 3.83778 8.16373 3.83241 8.06434 3.83212C7.64683 3.83159 7.23332 3.91337 6.84744 4.07277C6.46156 4.23218 6.1109 4.46609 5.81549 4.76112C5.52008 5.05616 5.28573 5.40653 5.12583 5.7922C4.96594 6.17788 4.88364 6.59129 4.88364 7.0088C4.88364 7.09726 4.88364 7.18573 4.88364 7.26816C4.88364 7.30033 4.88364 7.32847 4.89369 7.36064C4.89074 7.37389 4.89074 7.38761 4.89369 7.40085C4.90104 7.48204 4.9138 7.56264 4.93189 7.64212C4.94042 7.69101 4.95183 7.73935 4.96607 7.78688C4.97612 7.8291 4.98819 7.86932 4.99824 7.90752C5.00801 7.95081 5.02146 7.99318 5.03845 8.03418C5.07071 8.14248 5.11312 8.24749 5.16512 8.34782C5.19729 8.42624 5.24152 8.50264 5.27972 8.58105C5.27972 8.58105 5.27972 8.59714 5.29178 8.60317C5.2964 8.61232 5.30178 8.62106 5.30787 8.62931L5.33601 8.66751C5.37999 8.74486 5.42972 8.81878 5.4848 8.88866C5.50093 8.9142 5.51908 8.93841 5.53908 8.96105C5.58331 9.02136 5.63358 9.07565 5.68183 9.13195C5.69992 9.15406 5.72204 9.17618 5.74416 9.19829C5.79019 9.24945 5.83992 9.29716 5.89294 9.34104C5.91116 9.36362 5.93209 9.38389 5.95527 9.40136C5.73694 9.72163 5.53561 10.0532 5.3521 10.3946C5.17848 10.7366 5.02475 11.0884 4.89168 11.4481C4.81528 11.6291 4.7429 11.812 4.67655 11.993C4.6102 12.1739 4.54385 12.3629 4.4755 12.5499C4.42121 12.7369 4.36492 12.9259 4.31666 13.1189C4.27846 13.2717 4.23825 13.4265 4.20608 13.5813C4.15649 13.8185 4.11226 14.0558 4.07338 14.293C4.04524 14.48 4.02312 14.663 4.00101 14.85C4.00101 14.8882 4.00101 14.9223 4.00101 14.9605C3.98492 15.1194 3.97286 15.2802 3.96683 15.4451C3.95074 15.6723 3.94471 15.9035 3.94471 16.1287C3.94175 18.3329 4.54702 20.4951 5.69389 22.3775C5.77633 22.5102 5.85876 22.6489 5.94722 22.7796C6.0578 22.9465 6.16838 23.1053 6.285 23.2661C6.52023 23.5798 6.76351 23.8834 7.0289 24.1749C7.1616 24.3197 7.29429 24.4624 7.43101 24.6012C7.64614 24.8203 7.87334 25.0314 8.10857 25.2405C8.23121 25.3451 8.35185 25.4416 8.47449 25.5441C9.33535 26.2339 10.2873 26.8015 11.3033 27.231C11.6641 27.384 12.0325 27.5182 12.4071 27.6331C14.7426 28.3541 17.2413 28.3541 19.5768 27.6331C19.9515 27.5185 20.32 27.3843 20.6806 27.231C21.7013 26.802 22.6579 26.2344 23.5235 25.5441C23.6441 25.4436 23.7648 25.3431 23.8874 25.2405C24.1247 25.0395 24.3498 24.8203 24.565 24.6012C24.7037 24.4624 24.8344 24.3197 24.9671 24.1749C25.2325 23.8834 25.4757 23.5718 25.713 23.2661C25.8276 23.1053 25.9382 22.9465 26.0488 22.7796C26.1372 22.6489 26.2197 22.5102 26.3021 22.3775C27.449 20.4951 28.0542 18.3329 28.0513 16.1287C28.0452 15.9035 28.0392 15.6703 28.0231 15.4451ZM15.9598 16.3599C16.5067 16.3599 18.0508 16.4604 18.0508 16.9631C18.0508 17.8618 16.1427 18.5072 15.9598 18.4569C15.7788 18.5072 13.8648 17.8537 13.8648 16.9631C13.8728 16.4604 15.421 16.3599 15.9658 16.3599H15.9598ZM8.95099 10.9113C9.99849 10.2176 12.3147 9.8095 13.2254 11.0058C13.2254 11.0058 14.3715 12.2302 13.2475 13.5089C12.1236 14.7876 11.2591 15.9799 10.9977 17.0173C10.7364 18.0548 10.3242 18.485 9.49183 18.485C8.65946 18.485 7.03694 17.2043 6.83589 15.1536C6.63483 13.1028 7.91355 11.6009 8.95702 10.9113H8.95099ZM18.9213 19.1948C18.9213 20.6343 17.5924 21.8085 15.9598 21.8085C14.3272 21.8085 12.9982 20.6444 12.9982 19.1948H18.9213ZM22.4418 18.485C21.6074 18.485 21.1953 18.0548 20.9359 17.0173C20.6766 15.9799 19.8 14.7896 18.6801 13.5089C17.5602 12.2282 18.7022 11.0058 18.7022 11.0058C19.611 9.8095 21.9191 10.2176 22.9766 10.9113C24.0342 11.6049 25.2928 13.1008 25.0877 15.1536C24.8826 17.2063 23.2742 18.485 22.4418 18.485ZM23.8975 4.75094C24.3475 4.7511 24.7872 4.88661 25.1593 5.13987C25.5313 5.39313 25.8186 5.75244 25.9838 6.1711C26.1491 6.58977 26.1845 7.04845 26.0857 7.48754C25.9868 7.92664 25.7582 8.32585 25.4295 8.63333C25.3853 8.57301 25.337 8.51872 25.2868 8.46243C25.1661 8.31365 25.0395 8.1709 24.9068 8.02614C24.7741 7.88138 24.6474 7.74667 24.5047 7.60794C24.3619 7.46921 24.2292 7.33853 24.0865 7.20583C23.9437 7.07313 23.7989 6.94848 23.6502 6.82583C23.5014 6.70319 23.3466 6.58457 23.1918 6.46796C23.0369 6.35134 22.9063 6.25283 22.7575 6.15431C22.7438 6.13894 22.7265 6.1272 22.7072 6.12013C22.5584 6.01558 22.4036 5.91908 22.2488 5.8286C22.1825 5.78437 22.1181 5.74617 22.0478 5.70596C22.256 5.40918 22.533 5.16728 22.8552 5.00096C23.1773 4.83464 23.5349 4.74885 23.8975 4.75094ZM5.84066 6.99673C5.84039 6.51811 5.99304 6.05191 6.27635 5.66614C6.55966 5.28037 6.9588 4.9952 7.41557 4.85222C7.87234 4.70924 8.36285 4.71593 8.81555 4.87132C9.26825 5.0267 9.65946 5.32265 9.93214 5.71601C9.8658 5.75622 9.80146 5.79442 9.73109 5.83865C9.57628 5.93114 9.42146 6.02564 9.27268 6.13018C9.25361 6.13772 9.23644 6.14939 9.22242 6.16436C9.07364 6.26288 8.93089 6.36542 8.78814 6.47801C8.64539 6.5906 8.47851 6.70922 8.32973 6.83589C8.18095 6.96255 8.04222 7.0852 7.89746 7.22594C7.7527 7.36668 7.61598 7.4853 7.47927 7.62805C7.34255 7.7708 7.20784 7.90349 7.07716 8.04624C6.94647 8.18899 6.81779 8.33375 6.69716 8.48253C6.6469 8.53883 6.59864 8.59312 6.55441 8.65343C6.32699 8.44193 6.14609 8.18541 6.0232 7.90019C5.90032 7.61497 5.83816 7.30729 5.84066 6.99673ZM20.572 12.2805C20.4474 12.2801 20.3254 12.3167 20.2216 12.3857C20.1178 12.4547 20.0369 12.5529 19.989 12.668C19.9411 12.7831 19.9285 12.9098 19.9527 13.0321C19.9769 13.1543 20.0369 13.2666 20.125 13.3548C20.2131 13.4429 20.3255 13.5029 20.4477 13.5271C20.57 13.5513 20.6967 13.5387 20.8117 13.4908C20.9268 13.4429 21.0251 13.3619 21.0941 13.2581C21.1631 13.1543 21.1997 13.0324 21.1993 12.9078C21.1993 12.7414 21.1332 12.5818 21.0156 12.4642C20.8979 12.3466 20.7384 12.2805 20.572 12.2805ZM11.5547 13.5371C11.6791 13.5371 11.8008 13.5002 11.9043 13.431C12.0078 13.3619 12.0884 13.2636 12.1361 13.1486C12.1837 13.0336 12.1962 12.9071 12.1719 12.785C12.1476 12.6629 12.0877 12.5508 11.9996 12.4628C11.9116 12.3748 11.7995 12.3148 11.6774 12.2906C11.5554 12.2663 11.4288 12.2787 11.3138 12.3264C11.1988 12.374 11.1006 12.4547 11.0314 12.5581C10.9623 12.6616 10.9254 12.7833 10.9254 12.9078C10.9254 13.0747 10.9917 13.2347 11.1097 13.3527C11.2277 13.4708 11.3878 13.5371 11.5547 13.5371ZM20.572 12.2805C20.4474 12.2801 20.3254 12.3167 20.2216 12.3857C20.1178 12.4547 20.0369 12.5529 19.989 12.668C19.9411 12.7831 19.9285 12.9098 19.9527 13.0321C19.9769 13.1543 20.0369 13.2666 20.125 13.3548C20.2131 13.4429 20.3255 13.5029 20.4477 13.5271C20.57 13.5513 20.6967 13.5387 20.8117 13.4908C20.9268 13.4429 21.0251 13.3619 21.0941 13.2581C21.1631 13.1543 21.1997 13.0324 21.1993 12.9078C21.1993 12.7414 21.1332 12.5818 21.0156 12.4642C20.8979 12.3466 20.7384 12.2805 20.572 12.2805ZM11.5547 12.2805C11.4301 12.2805 11.3084 12.3174 11.2048 12.3867C11.1013 12.4559 11.0206 12.5543 10.9731 12.6694C10.9255 12.7845 10.9132 12.9112 10.9376 13.0333C10.962 13.1554 11.0222 13.2675 11.1104 13.3555C11.1986 13.4434 11.3109 13.5032 11.4331 13.5272C11.5553 13.5513 11.6819 13.5385 11.7969 13.4906C11.9118 13.4427 12.01 13.3617 12.0789 13.2579C12.1478 13.1542 12.1844 13.0323 12.184 12.9078C12.184 12.8252 12.1677 12.7435 12.136 12.6672C12.1044 12.591 12.058 12.5218 11.9995 12.4635C11.9411 12.4052 11.8717 12.3591 11.7953 12.3276C11.719 12.2962 11.6372 12.2802 11.5547 12.2805ZM20.572 12.2805C20.4474 12.2801 20.3254 12.3167 20.2216 12.3857C20.1178 12.4547 20.0369 12.5529 19.989 12.668C19.9411 12.7831 19.9285 12.9098 19.9527 13.0321C19.9769 13.1543 20.0369 13.2666 20.125 13.3548C20.2131 13.4429 20.3255 13.5029 20.4477 13.5271C20.57 13.5513 20.6967 13.5387 20.8117 13.4908C20.9268 13.4429 21.0251 13.3619 21.0941 13.2581C21.1631 13.1543 21.1997 13.0324 21.1993 12.9078C21.1993 12.7414 21.1332 12.5818 21.0156 12.4642C20.8979 12.3466 20.7384 12.2805 20.572 12.2805ZM11.5547 12.2805C11.4301 12.2805 11.3084 12.3174 11.2048 12.3867C11.1013 12.4559 11.0206 12.5543 10.9731 12.6694C10.9255 12.7845 10.9132 12.9112 10.9376 13.0333C10.962 13.1554 11.0222 13.2675 11.1104 13.3555C11.1986 13.4434 11.3109 13.5032 11.4331 13.5272C11.5553 13.5513 11.6819 13.5385 11.7969 13.4906C11.9118 13.4427 12.01 13.3617 12.0789 13.2579C12.1478 13.1542 12.1844 13.0323 12.184 12.9078C12.184 12.8252 12.1677 12.7435 12.136 12.6672C12.1044 12.591 12.058 12.5218 11.9995 12.4635C11.9411 12.4052 11.8717 12.3591 11.7953 12.3276C11.719 12.2962 11.6372 12.2802 11.5547 12.2805Z" fill="white"></path><path d="M39.9296 12.6203H42.1955V10.5172C42.1955 7.96783 43.6029 6.2669 46.4479 6.2669L47.8552 6.55039V9.09978L46.2971 8.81629C45.4466 8.81629 45.0224 9.38326 45.0224 10.2237V12.6102H47.8552V15.1596H45.0364V25.9301H42.2016V15.1696H39.9296V12.6203Z" fill="#FF2B85"></path><path d="M55.2139 12.3368C58.8992 12.3368 62.1583 15.1696 62.1583 19.2792C62.1583 23.3888 58.9093 26.2217 55.2139 26.2217C51.5185 26.2217 48.2714 23.3888 48.2714 19.2893C48.2714 15.1897 51.5305 12.3368 55.2139 12.3368ZM55.2139 23.6723C57.908 23.6723 59.3234 21.6879 59.3234 19.2792C59.3234 16.8706 57.9161 14.8862 55.2139 14.8862C52.5117 14.8862 51.1063 16.8766 51.1063 19.2893C51.1063 21.7019 52.5217 23.6723 55.2139 23.6723Z" fill="#FF2B85"></path><path d="M70.3534 12.3368C74.0367 12.3368 77.2958 15.1696 77.2958 19.2792C77.2958 23.3888 74.0367 26.2217 70.3534 26.2217C66.67 26.2217 63.4109 23.3888 63.4109 19.2893C63.4109 15.1897 66.67 12.3368 70.3534 12.3368ZM70.3534 23.6723C73.0455 23.6723 74.4629 21.6879 74.4629 19.2792C74.4629 16.8706 73.0455 14.8862 70.3534 14.8862C67.6612 14.8862 66.2438 16.8766 66.2438 19.2893C66.2438 21.7019 67.6612 23.6723 70.3534 23.6723Z" fill="#FF2B85"></path><path d="M92.1518 25.9402H89.6004L89.3169 24.8062L89.1762 24.6635L89.0334 24.8062C88.185 25.6567 86.7675 26.2136 85.3501 26.2136C81.6668 26.2136 78.5484 23.3808 78.5484 19.2712C78.5484 15.1616 81.6668 12.3287 85.3501 12.3287C86.7394 12.3287 88.185 12.8957 89.0334 13.7361L89.1762 13.8789L89.3169 13.7361V6.2669H92.1518V25.9402ZM85.4908 14.8821C82.7987 14.8821 81.3531 16.8665 81.3531 19.2752C81.3531 21.6838 82.7987 23.6683 85.4908 23.6683C87.9035 23.6683 89.6004 21.6838 89.6004 19.2752C89.6004 16.8665 87.9015 14.8862 85.4908 14.8862V14.8821Z" fill="#FF2B85"></path><path d="M94.9927 12.6203H97.5441L97.7994 13.7522L97.9683 13.895L98.1111 13.7522C98.9615 12.9037 100.377 12.3448 101.794 12.3448C105.48 12.3448 108.596 15.1777 108.596 19.2873C108.596 23.3968 105.48 26.2297 101.794 26.2297C100.405 26.2297 98.9615 25.6647 98.1111 24.8223L97.9683 24.6796L97.7994 24.8223V31.9558H94.9847L94.9927 12.6203ZM101.654 23.6783C104.348 23.6723 105.755 21.6879 105.755 19.2893C105.755 16.8907 104.348 14.8962 101.646 14.8962C99.233 14.8962 97.5361 16.8806 97.5361 19.2893C97.5361 21.6979 99.245 23.6723 101.654 23.6723V23.6783Z" fill="#FF2B85"></path><path d="M115.736 17.6688H118.056V17.0777C118.056 15.4692 116.962 14.7313 115.442 14.7313C114.216 14.7313 113.387 15.3184 112.935 16.5187L110.4 15.9839C110.961 13.716 112.907 12.2765 115.468 12.2765C119.043 12.2765 120.83 14.0377 120.83 17.5843V25.9362H118.484L118.221 24.1789C117.288 25.4858 115.9 26.1533 114.059 26.1533C111.684 26.1533 109.923 24.7459 109.923 22.0719C109.919 19.3234 112.241 17.6688 115.736 17.6688ZM114.529 23.7004C115.427 23.7148 116.3 23.4018 116.984 22.8198C117.704 22.2066 118.05 21.3802 118.05 20.2865V19.993H115.629C113.922 19.993 112.854 20.7972 112.854 22.0739C112.854 23.0309 113.442 23.6984 114.535 23.6984L114.529 23.7004Z" fill="#FF2B85"></path><path d="M123.448 12.6203H125.997L126.281 13.7522L126.424 13.895L126.564 13.7522C127.131 12.9037 128.549 12.3448 129.683 12.3448C133.083 12.3448 135.067 14.6107 135.067 17.7291V25.9482H132.232V17.721C132.148 15.9115 131.269 14.8862 129.399 14.8862C128.595 14.8914 127.823 15.205 127.242 15.7622C126.662 16.3195 126.317 17.0781 126.279 17.8819V25.9241H123.448V12.6203Z" fill="#FF2B85"></path><path d="M150.496 25.9402H147.945L147.661 24.8062L147.52 24.6635L147.378 24.8062C146.527 25.6567 145.11 26.2136 143.694 26.2136C140.009 26.2136 136.893 23.3808 136.893 19.2712C136.893 15.1616 140.009 12.3287 143.694 12.3287C145.082 12.3287 146.527 12.8957 147.378 13.7361L147.52 13.8789L147.661 13.7361V6.2669H150.496V25.9402ZM143.835 14.8821C141.141 14.8862 139.697 16.8766 139.697 19.2893C139.697 21.7019 141.141 23.6723 143.835 23.6723C146.248 23.6723 147.945 21.6879 147.945 19.2792C147.945 16.8706 146.244 14.8862 143.835 14.8862V14.8821Z" fill="#FF2B85"></path><path d="M158.564 17.6688H160.885V17.0777C160.885 15.4692 159.791 14.7313 158.271 14.7313C157.042 14.7313 156.216 15.3184 155.762 16.5187L153.228 15.9839C153.789 13.716 155.736 12.2765 158.297 12.2765C161.872 12.2765 163.659 14.0377 163.659 17.5843V25.9362H161.311L161.045 24.1789C160.111 25.4858 158.723 26.1533 156.884 26.1533C154.509 26.1533 152.748 24.7459 152.748 22.0719C152.748 19.3234 155.07 17.6688 158.564 17.6688ZM157.358 23.7004C158.256 23.7147 159.128 23.4016 159.811 22.8198C160.533 22.2066 160.879 21.3802 160.879 20.2865V19.993H158.458C156.749 19.993 155.683 20.7972 155.683 22.0739C155.683 23.0309 156.27 23.6984 157.364 23.6984L157.358 23.7004Z" fill="#FF2B85"></path></svg> 